# xmcd CD database file
#
# Track frame offsets:
#	150
#	26243
#	51500
#	69642
#	95220
#	112595
#	129906
#	156782
#	175946
#	203553
#
# Disc length: 2954 seconds
#
# Revision: 3
# Processed by: cddbd v1.5.2PL0 Copyright (c) Steve Scherf et al.
# Submitted via: CDex 1.90
#
DISCID=860b880a
DTITLE=Erasure - Acoustic Live (TEA Shepherds Bush Empire, London, England 19.04.06) (2 of 2)
DYEAR=2006
DGENRE=Synthpop
TTITLE0=Sometimes
TTITLE1=Tenderest Moments
TTITLE2=Ship Of Fools
TTITLE3=Love To Hate You
TTITLE4=Against My View
TTITLE5=Piano Song
TTITLE6=Rock Me Gently
TTITLE7=Stop
TTITLE8=Chains Of Love
TTITLE9=A Little Respect
EXTD=YEAR: 2006
EXTT0=
EXTT1=
EXTT2=
EXTT3=
EXTT4=
EXTT5=
EXTT6=
EXTT7=
EXTT8=
EXTT9=
PLAYORDER=
